<svg width="130" height="130" viewBox="0 0 130 130" fill="none" xmlns="http://www.w3.org/2000/svg">
<path d="M91.9708 29.5436C90.0975 26.9481 88.1791 24.4429 86.4638 21.8249C85.877 20.9446 84.8162 19.6808 85.4708 18.6877C85.9899 18.1686 87.4343 18.462 88.3822 18.5974C99.3284 20.1773 109.981 22.8856 120.002 27.6929C124.719 29.9499 125.238 30.9203 124.087 35.7953C121.672 46.087 117.948 55.8144 112.825 65.0002C112.599 65.3839 110.884 67.8665 110.094 67.0315C108.356 63.3526 106.709 59.8769 104.993 56.2207C103.052 57.3717 101.224 58.4551 99.3961 59.5384C79.1287 71.5228 59.1774 84.0037 41.2572 99.4186C37.0367 103.052 32.8388 106.709 28.6183 110.342C26.5419 112.148 25.6392 112.125 23.9465 109.643C21.0576 105.422 18.2364 101.134 15.6183 96.7554C12.3458 91.2936 9.32146 85.6738 6.20687 80.1217C4.83014 77.6842 5.03326 75.653 7.26764 73.712C23.6305 59.4481 41.1895 47.0801 61.7728 39.6321C71.6583 36.0436 81.6791 32.9516 91.9708 29.5436ZM91.5645 22.9533C93.3249 24.6235 95.1531 26.2485 96.7781 28.0315C98.1999 29.5662 97.7711 31.4394 95.8076 32.1842C93.5506 33.0419 91.3162 33.9898 89.0142 34.7797C61.8405 44.1009 36.1791 56.311 13.8353 74.7502C12.9777 75.4724 12.0749 76.1495 11.5333 76.5783C16.8145 86.5766 21.9152 96.2137 26.9933 105.806C31.7329 101.495 36.2017 97.2294 40.8735 93.1443C60.2833 76.1946 82.2659 63.1946 105.219 51.6842C107.16 50.7137 108.401 51.3683 109.101 53.1061C110.071 55.4759 111.967 60.712 111.967 60.712C115.443 51.3908 119.032 41.7762 122.552 32.3648C122.597 32.2294 122.53 32.0488 122.394 31.9811C112.125 27.5349 102.262 24.2624 91.6548 22.7728C91.5645 22.7728 91.5194 22.8856 91.5645 22.9533Z" fill="#313131"/>
</svg>
