<svg width="8" height="8" viewBox="0 0 8 8" fill="none" xmlns="http://www.w3.org/2000/svg">
<path d="M3.64645 7.35355C3.84171 7.54882 4.15829 7.54882 4.35355 7.35355L7.53553 4.17157C7.7308 3.97631 7.7308 3.65973 7.53553 3.46447C7.34027 3.2692 7.02369 3.2692 6.82843 3.46447L4 6.29289L1.17157 3.46447C0.976311 3.2692 0.659729 3.2692 0.464466 3.46447C0.269204 3.65973 0.269204 3.97631 0.464466 4.17157L3.64645 7.35355ZM3.5 6L3.5 7L4.5 7L4.5 6L3.5 6Z" fill="#959595"/>
<path d="M3.64645 4.35355C3.84171 4.54882 4.15829 4.54882 4.35355 4.35355L7.53553 1.17157C7.7308 0.976311 7.7308 0.659729 7.53553 0.464466C7.34027 0.269204 7.02369 0.269204 6.82843 0.464466L4 3.29289L1.17157 0.464466C0.976311 0.269204 0.659729 0.269204 0.464466 0.464466C0.269204 0.659728 0.269204 0.97631 0.464466 1.17157L3.64645 4.35355ZM3.5 3L3.5 4L4.5 4L4.5 3L3.5 3Z" fill="#959595"/>
</svg>
