<svg width="120" height="94" viewBox="0 0 120 94" fill="none" xmlns="http://www.w3.org/2000/svg">
<path d="M86.9705 11.5436C85.0973 8.94812 83.1789 6.44291 81.4636 3.82486C80.8768 2.94465 79.816 1.68076 80.4705 0.687704C80.9896 0.168607 82.4341 0.462009 83.382 0.597426C94.3282 2.17729 104.981 4.88562 115.002 9.69291C119.719 11.9499 120.238 12.9203 119.087 17.7953C116.672 28.087 112.948 37.8144 107.825 47.0002C107.599 47.3839 105.884 49.8665 105.094 49.0315C103.356 45.3526 101.708 41.8769 99.9931 38.2207C98.0521 39.3717 96.224 40.4551 94.3959 41.5384C74.1285 53.5228 54.1771 66.0037 36.257 81.4186C32.0365 85.0523 27.8386 88.7085 23.6181 92.3422C21.5417 94.1478 20.6389 94.1252 18.9462 91.6426C16.0573 87.4221 13.2361 83.1339 10.6181 78.7554C7.34552 73.2936 4.32121 67.6738 1.20663 62.1217C-0.170108 59.6842 0.033017 57.653 2.26739 55.712C18.6302 41.4481 36.1893 29.0801 56.7726 21.6321C66.658 18.0436 76.6788 14.9516 86.9705 11.5436ZM86.5643 4.95333C88.3247 6.62347 90.1528 8.24847 91.7778 10.0315C93.1997 11.5662 92.7709 13.4394 90.8073 14.1842C88.5504 15.0419 86.316 15.9898 84.0139 16.7797C56.8403 26.1009 31.1788 38.311 8.8351 56.7502C7.97746 57.4724 7.07468 58.1495 6.53302 58.5783C11.8143 68.5766 16.915 78.2137 21.9931 87.8058C26.7327 83.495 31.2014 79.2294 35.8733 75.1443C55.283 58.1946 77.2657 45.1946 100.219 33.6842C102.16 32.7137 103.401 33.3683 104.101 35.1061C105.071 37.4759 106.967 42.712 106.967 42.712C110.443 33.3908 114.031 23.7762 117.552 14.3648C117.597 14.2294 117.53 14.0488 117.394 13.9811C107.125 9.53493 97.2622 6.26236 86.6545 4.77277C86.5643 4.77277 86.5191 4.88562 86.5643 4.95333Z" fill="black" fill-opacity="0.05"/>
</svg>
