<svg width="60" height="60" viewBox="0 0 60 60" fill="none" xmlns="http://www.w3.org/2000/svg">
<path d="M43.45 20.5832H35V22.9332H43.4833L43.45 20.5832ZM41.6667 36.7499C41.0256 37.1746 40.2686 37.3901 39.5 37.3666C38.9912 37.4196 38.477 37.3671 37.9894 37.2122C37.5019 37.0573 37.0516 36.8035 36.6667 36.4666C35.955 35.6597 35.5845 34.608 35.6333 33.5332H46.6667C46.7462 32.4141 46.6506 31.2895 46.3833 30.1999C46.1248 29.1633 45.6724 28.1849 45.05 27.3166C44.4235 26.4742 43.6144 25.7848 42.6833 25.2999C41.6474 24.7891 40.5049 24.5321 39.35 24.5499C38.2639 24.5419 37.1871 24.7516 36.1833 25.1666C35.2642 25.5541 34.4313 26.1206 33.7333 26.8332C33.0373 27.5601 32.4984 28.4224 32.15 29.3666C31.7762 30.3858 31.5898 31.4643 31.6 32.5499C31.5828 33.6509 31.7635 34.7461 32.1333 35.7832C32.4475 36.7225 32.9461 37.5894 33.6 38.3332C34.2765 39.0635 35.108 39.633 36.0333 39.9999C37.0652 40.393 38.1626 40.5854 39.2667 40.5666C40.8157 40.6149 42.3451 40.2093 43.6667 39.3999C45.0015 38.4513 45.9626 37.0658 46.3833 35.4832H42.7C42.5028 36.0068 42.1399 36.4516 41.6667 36.7499ZM35.95 29.8832C36.0797 29.4677 36.295 29.084 36.5821 28.7567C36.8691 28.4295 37.2216 28.166 37.6167 27.9832C38.1399 27.7477 38.7097 27.6337 39.2833 27.6499C39.6977 27.6145 40.1148 27.6692 40.506 27.8101C40.8973 27.9511 41.2534 28.175 41.55 28.4666C42.1163 29.1598 42.4797 29.9962 42.6 30.8832H35.6833C35.7103 30.5445 35.7717 30.2095 35.8667 29.8832H35.95ZM27.1333 29.0832C27.9816 28.73 28.7187 28.1542 29.2667 27.4166C29.7704 26.6332 30.0206 25.7138 29.9833 24.7832C30.016 23.9346 29.8505 23.0901 29.5 22.3166C29.2055 21.6464 28.7328 21.0699 28.1333 20.6499C27.4977 20.2132 26.776 19.9177 26.0167 19.7832C25.118 19.5948 24.2014 19.5053 23.2833 19.5166H13.3333V40.4832H23.5C24.4278 40.4839 25.3519 40.3663 26.25 40.1332C27.1012 39.913 27.9077 39.5465 28.6333 39.0499C29.3362 38.5628 29.9086 37.9103 30.3 37.1499C30.7332 36.2995 30.9453 35.3538 30.9167 34.3999C30.9482 33.2178 30.6167 32.0544 29.9667 31.0666C29.2676 30.0731 28.2309 29.3681 27.05 29.0832H27.1333ZM17.95 23.0999H22.2667C22.6632 23.0994 23.0591 23.1329 23.45 23.1999C23.8099 23.2532 24.1556 23.3779 24.4667 23.5666C24.7672 23.7366 25.0108 23.9917 25.1667 24.2999C25.3597 24.6694 25.4517 25.0834 25.4333 25.4999C25.4644 25.8586 25.4095 26.2196 25.2733 26.5529C25.1371 26.8862 24.9234 27.1823 24.65 27.4166C24.0535 27.8266 23.3398 28.0314 22.6167 27.9999H17.95V23.0999ZM26.0167 35.4999C25.8454 35.8396 25.5865 36.1273 25.2667 36.3332C24.9338 36.5402 24.5671 36.6869 24.1833 36.7666C23.7568 36.8621 23.3204 36.9068 22.8833 36.8999H17.8833V31.1499H22.8833C23.7414 31.1123 24.5887 31.3519 25.3 31.8332C25.6213 32.1216 25.8703 32.4816 26.0266 32.8841C26.183 33.2866 26.2424 33.7202 26.2 34.1499C26.2451 34.608 26.1823 35.0704 26.0167 35.4999Z" fill="#959595"/>
</svg>
