<svg width="66" height="87" viewBox="0 0 66 87" fill="none" xmlns="http://www.w3.org/2000/svg">
<path d="M52.9488 21.0083C52.4887 25.5538 52.1575 29.3448 51.6974 33.1173C51.4398 35.1784 50.5932 36.9635 48.2745 37.4604C46.3422 37.8652 44.3363 36.7979 43.1769 34.4239C42.0543 32.142 41.2446 29.6944 40.3981 27.2836C37.9505 20.3642 34.178 14.2177 29.5036 8.60482C28.0498 6.85656 26.6144 5.10829 24.9398 3.08399C24.5717 4.31698 24.2773 5.31072 23.9828 6.30447C20.8543 17.1069 19.787 28.1118 20.2655 39.3191C20.4127 42.9444 19.9894 46.6434 19.4741 50.2503C19.1429 52.5691 18.278 54.9246 15.4807 55.4399C13.4748 55.8079 11.4873 54.1517 10.2727 51.1336C9.46302 49.1093 8.92934 46.9562 8.19323 44.8951C7.78837 43.7357 7.19948 42.65 6.6658 41.4354C-0.0880215 49.643 5.06476 76.7135 14.0637 80.6701C14.1005 73.4194 17.4314 67.4201 21.3696 61.752C26.9457 53.7284 29.9821 44.8583 30.9943 35.2152C31.0679 34.4975 31.2151 33.7614 31.3439 33.0621C31.9696 29.7864 33.313 29.2527 35.7606 31.6819C37.3432 33.2461 38.7418 35.1784 39.662 37.1843C44.2259 47.0114 46.1214 57.2066 43.0297 67.917C42.68 69.0948 41.8887 70.751 42.4776 71.5975C43.5082 72.8857 45.1276 70.6774 45.4773 69.7757C46.3974 67.4017 46.9679 64.9173 47.704 62.4698C48.1641 60.9423 48.4401 59.2677 49.2682 57.9427C49.9123 56.9121 51.3109 55.6423 52.2679 55.7343C53.2616 55.8264 54.6418 57.2434 54.9731 58.3475C57.4023 66.5736 56.2613 74.1003 48.6793 80.4861C44.778 83.7802 39.9748 84.8475 35.0613 85.4916C29.522 86.2093 24.0564 86.4302 18.4988 85.1604C15.8488 84.5531 13.0884 84.1482 11.4873 83.5593C9.88629 82.9704 8.52448 81.7743 7.88038 80.7805C-0.308855 68.1378 -1.65226 54.8142 4.10781 40.8465C5.30399 37.9573 7.60434 37.35 9.62865 39.7423C11.1193 41.509 11.9658 43.8829 12.9043 46.0913C13.5484 47.6371 13.8981 49.3118 14.3398 50.9312C14.8918 52.9555 15.7016 53.2684 16.2536 52.9187C16.9346 52.7163 17.3394 50.2687 17.2658 47.8211C17.137 43.7909 17.2106 39.7423 16.7873 35.7489C15.5543 24.0448 18.4068 13.0767 22.5658 2.32947C23.5964 -0.357331 24.7741 -0.688581 26.9825 1.1885C36.0366 8.86246 42.5696 18.2111 45.5325 29.8416C45.9925 31.6083 46.1398 33.5958 48.3849 34.9944C48.6057 33.2829 48.7898 31.8659 48.9922 30.4673C49.5075 27.0076 49.8387 23.5111 50.6116 20.125C51.0901 18.0823 52.5071 17.659 53.9977 19.1312C55.9484 21.0635 57.8623 23.1982 59.1321 25.609C63.8616 34.6264 65.4811 44.4166 65.4443 54.5013C65.4075 62.4329 63.9352 70.1253 60.2915 77.2104C59.0585 79.6211 56.979 81.6086 55.2123 83.725C54.421 84.6819 52.6175 84.3691 53.4457 82.2343C53.5193 82.0503 53.6113 81.8295 53.7401 81.6454C60.5859 72.4625 61.2668 61.7152 61.3589 50.8944C61.4325 42.2635 60.1811 33.7982 56.1509 25.9954C55.3043 24.3944 54.2186 22.959 52.9488 21.0083ZM51.955 58.7524C50.8693 62.3593 50.0227 65.3406 49.0474 68.3034C48.2745 70.6406 47.0967 72.7569 44.778 73.9163C42.0911 75.2781 39.478 73.7691 39.3307 70.751C39.2755 69.518 39.3307 68.2482 39.57 67.052C41.447 57.4458 40.5637 48.134 36.8096 39.0982C36.1655 37.5524 35.2269 36.1354 34.2884 34.4423C33.9571 34.9944 33.7179 37.0003 33.6811 37.8652C33.4418 44.4166 32.7057 50.8944 29.2644 56.6729C27.2033 60.1142 24.8846 63.4083 22.6394 66.7576C20.155 70.4934 17.9467 74.3579 17.137 78.8482C16.5849 81.9215 16.8241 82.0687 19.7686 82.8232C26.0071 84.4059 32.1168 83.3937 38.2082 82.1791C45.146 80.7989 49.4707 76.235 52.0471 69.9413C53.4641 66.5 53.0592 62.9298 51.955 58.7524Z" fill="#313131"/>
</svg>
