<svg width="47" height="64" viewBox="0 0 47 64" fill="none" xmlns="http://www.w3.org/2000/svg">
<g clip-path="url(#clip0_762_2852)">
<path d="M46.7805 39.3742V56.0639C46.7776 58.1678 45.9406 60.1847 44.4529 61.6724C42.9653 63.1601 40.9483 63.9971 38.8445 63.9999H17.4649C13.695 63.9934 10.0813 62.4928 7.41554 59.8271C4.74978 57.1613 3.24926 53.5477 3.24268 49.7777V45.2835L11.4205 35.5342V8.72882C11.4214 7.27309 11.9994 5.87709 13.0277 4.84674C14.0561 3.81638 15.4509 3.2357 16.9067 3.23193H17.0062C18.4626 3.23476 19.8584 3.81503 20.8875 4.84548C21.9166 5.87594 22.4951 7.27248 22.496 8.72882V22.2719L36.5796 5.48971C37.0428 4.93659 37.6106 4.48033 38.2505 4.14708C38.8904 3.81384 39.5898 3.61016 40.3085 3.54773C41.0273 3.4853 41.7513 3.56535 42.4391 3.78328C43.1268 4.00121 43.7648 4.35274 44.3165 4.81771L44.3911 4.87816C45.5044 5.81524 46.2007 7.15554 46.3273 8.60519C46.454 10.0548 46.0006 11.4956 45.0667 12.6115L32.7787 27.2853C33.5668 27.1443 34.3762 27.1783 35.1498 27.3847C35.9233 27.5912 36.642 27.9651 37.2551 28.4799L37.3333 28.5439C38.0967 29.1866 38.6709 30.0246 38.9947 30.9684C39.3185 31.9122 39.3796 32.9263 39.1716 33.9022C40.0955 33.5258 41.1046 33.4088 42.0901 33.5635C43.0757 33.7183 44.0003 34.139 44.7645 34.7804L44.8391 34.8408C45.393 35.304 45.8495 35.8725 46.1821 36.5133C46.5147 37.1542 46.7169 37.8546 46.7769 38.5742C46.7958 38.8404 46.797 39.1077 46.7805 39.3742Z" fill="black"/>
<path d="M42.9013 36.224V52.8285C42.9004 54.7651 42.1307 56.6221 40.7613 57.9915C39.3919 59.3609 37.5348 60.1306 35.5982 60.1316H14.2222C10.6168 60.1306 7.15944 58.6978 4.61038 56.148C2.06132 53.5983 0.629333 50.1405 0.629333 46.5351V42.2685L8.80711 32.5156V5.49336C8.80664 4.85542 8.93195 4.22364 9.17587 3.63416C9.41978 3.04469 9.77752 2.50908 10.2286 2.05798C10.6797 1.60689 11.2153 1.24915 11.8048 1.00523C12.3943 0.761316 13.0261 0.636008 13.664 0.636476H13.76C14.3979 0.636008 15.0297 0.761316 15.6192 1.00523C16.2087 1.24915 16.7443 1.60689 17.1954 2.05798C17.6465 2.50908 18.0042 3.04469 18.2481 3.63416C18.492 4.22364 18.6174 4.85542 18.6169 5.49336V20.7823L33.8276 2.64892C34.2373 2.16026 34.7394 1.75715 35.3051 1.46264C35.8707 1.16812 36.4889 0.98798 37.1242 0.932505C37.7595 0.87703 38.3996 0.947311 39.0077 1.13933C39.6158 1.33135 40.1802 1.64134 40.6684 2.05159L40.7396 2.11559C41.2282 2.52537 41.6313 3.02744 41.9258 3.5931C42.2204 4.15876 42.4005 4.77692 42.456 5.41224C42.5114 6.04756 42.4412 6.68758 42.2491 7.29572C42.0571 7.90387 41.7471 8.46821 41.3369 8.95648L27.0222 26.0374C27.8795 25.1715 29.0308 24.6595 30.2479 24.6029C31.465 24.5462 32.659 24.9491 33.5929 25.7316L33.6676 25.7956C34.6523 26.6226 35.2692 27.806 35.3831 29.0869C35.4971 30.3677 35.0988 31.6415 34.2756 32.6294C34.6843 32.1414 35.1854 31.7389 35.7499 31.4449C36.3145 31.1509 36.9315 30.9712 37.5657 30.916C38.1998 30.8609 38.8386 30.9314 39.4455 31.1235C40.0524 31.3156 40.6153 31.6255 41.1022 32.0356L41.1733 32.0996C41.7721 32.5972 42.2419 33.232 42.5427 33.9501C42.8436 34.6681 42.9666 35.4482 42.9013 36.224Z" fill="#A259FF"/>
<path d="M43.5413 35.3387C43.4814 34.6193 43.2789 33.919 42.9456 33.2786C42.6123 32.6383 42.1549 32.0707 41.6 31.6089L41.5253 31.5449C40.9749 31.0798 40.3375 30.7287 39.6502 30.5121C38.9629 30.2954 38.2394 30.2174 37.5218 30.2827C36.9746 30.3304 36.4377 30.4598 35.9289 30.6667C36.1382 29.6914 36.0783 28.6777 35.7558 27.7338C35.4333 26.79 34.8601 25.9516 34.0978 25.3084L34.0231 25.2444C33.4082 24.7303 32.6882 24.3569 31.9137 24.1505C31.1391 23.9441 30.3288 23.9097 29.5396 24.0498L41.8311 9.37956C42.7653 8.26304 43.2187 6.82175 43.0921 5.37152C42.9654 3.92128 42.2691 2.58038 41.1556 1.64267L41.0809 1.57867C39.9641 0.642925 38.5215 0.188832 37.0701 0.316172C35.6187 0.443512 34.2772 1.14187 33.3404 2.25778L19.2604 19.04V5.49333C19.2595 4.03731 18.6809 2.64115 17.6517 1.61126C16.6225 0.581362 15.2267 0.00188329 13.7707 0L13.6711 0C12.2148 0.00188159 10.8186 0.581246 9.78882 1.61104C8.75902 2.64083 8.17966 4.03699 8.17778 5.49333V32.2987L0 42.048L0 46.5351C0.00658015 50.3051 1.5071 53.9187 4.17286 56.5845C6.83862 59.2502 10.4523 60.7508 14.2222 60.7573H35.5982C37.7024 60.7555 39.7199 59.9187 41.2077 58.4309C42.6956 56.943 43.5323 54.9255 43.5342 52.8213V36.1422C43.5579 35.875 43.5603 35.6063 43.5413 35.3387ZM34.7804 33.0382C35.4986 32.1838 36.5265 31.6492 37.6384 31.5519C38.7503 31.4546 39.8554 31.8024 40.7111 32.5191L40.7858 32.5831C41.2112 32.9383 41.5617 33.3746 41.8169 33.8666C42.072 34.3587 42.2267 34.8965 42.272 35.4489C42.272 35.5236 42.272 35.5947 42.272 35.6693V36.1209C42.2097 37.0056 41.8672 37.8475 41.2942 38.5244L36.9778 43.6373C36.5848 44.1031 36.0948 44.4775 35.5421 44.7342C34.9893 44.9909 34.3872 45.1238 33.7778 45.1236H33.6498C32.8753 45.1253 32.1155 44.912 31.455 44.5075C30.7945 44.103 30.2593 43.5231 29.9088 42.8325C29.5583 42.1418 29.4063 41.3675 29.4698 40.5956C29.5333 39.8237 29.8098 39.0845 30.2684 38.4604L34.7733 33.0453L34.7804 33.0382ZM33.2018 26.2222L33.2764 26.2827C34.1321 27.0022 34.6676 28.0316 34.7655 29.1453C34.8635 30.259 34.516 31.3661 33.7991 32.224L29.4471 37.4116C29.3476 37.5324 29.2551 37.6533 29.1662 37.7671L27.5804 39.6693C27.424 39.0338 27.069 38.4646 26.5671 38.0444L21.4258 33.7351L27.5058 26.4782C28.2512 25.731 29.2496 25.2903 30.304 25.2429C31.3584 25.1955 32.3923 25.5449 33.2018 26.2222ZM9.45422 5.49333C9.45516 4.37491 9.89963 3.3025 10.6901 2.51132C11.4807 1.72014 12.5527 1.27477 13.6711 1.27289H13.7707C14.8891 1.27477 15.9611 1.72014 16.7516 2.51132C17.5421 3.3025 17.9866 4.37491 17.9876 5.49333V22.5387L34.3182 3.07556C34.6737 2.65052 35.1096 2.29984 35.6008 2.04362C36.0921 1.7874 36.6291 1.63068 37.1811 1.58245C37.7331 1.53423 38.2892 1.59544 38.8174 1.76258C39.3457 1.92972 39.8358 2.1995 40.2596 2.55644L40.3342 2.61689C41.1904 3.33704 41.7259 4.36744 41.8232 5.48198C41.9205 6.59651 41.5717 7.70413 40.8533 8.56178L26.5351 25.6533C26.4498 25.7422 26.3644 25.8276 26.2827 25.9236L20.4516 32.9173L15.328 28.6151C14.6952 28.0874 13.8793 27.8316 13.0586 27.9035C12.2378 27.9755 11.4789 28.3694 10.9476 28.9991L9.45422 30.7769V5.49333ZM42.272 52.8284C42.2692 54.5947 41.5663 56.2879 40.3173 57.5369C39.0683 58.7858 37.3752 59.4887 35.6089 59.4916H14.2222C10.7886 59.485 7.49767 58.1176 5.07042 55.689C2.64317 53.2604 1.27759 49.9687 1.27289 46.5351V42.5102L11.9396 29.8204C12.2527 29.4483 12.7005 29.2154 13.185 29.1727C13.6695 29.1301 14.1511 29.2811 14.5244 29.5929L25.7636 39.0222C26.1357 39.3353 26.3686 39.7832 26.4113 40.2677C26.454 40.7522 26.3029 41.2338 25.9911 41.6071L25.9556 41.6498L25.9271 41.6818C24.8016 43.0231 23.1894 43.8624 21.4451 44.0151C19.7008 44.1678 17.9672 43.6213 16.6258 42.496L14.1724 40.4338L13.76 40.9244L13.6604 41.0453L13.4684 41.2729L10.0267 45.3511L11.0044 46.1689L14.3111 42.2293L15.7902 43.4702C17.3903 44.8128 19.458 45.4651 21.5389 45.2838C23.6197 45.1025 25.5434 44.1023 26.8871 42.5031L26.9476 42.4249L28.1529 40.9813C28.1725 42.4231 28.7578 43.7995 29.7827 44.8138C30.8076 45.8281 32.1901 46.399 33.632 46.4036H33.7778C34.5727 46.4006 35.3573 46.2237 36.0766 45.8852C36.7958 45.5468 37.4323 45.055 37.9413 44.4444L42.2649 39.3316L42.272 52.8284Z" fill="black"/>
</g>
<defs>
<clipPath id="clip0_762_2852">
<rect width="46.7947" height="64" fill="white"/>
</clipPath>
</defs>
</svg>
