<svg width="116" height="116" viewBox="0 0 116 116" fill="none" xmlns="http://www.w3.org/2000/svg">
<path d="M60.1547 86.5167C49.2193 86.0535 38.3846 82.5695 28.6978 75.7424C27.6103 74.9771 26.6033 73.9501 25.8985 72.8223C25.4756 72.1577 25.0929 71.0903 25.6971 70.2646C26.402 69.3181 27.3485 69.5195 28.1742 69.6202C29.0804 69.741 29.9263 70.3452 30.7721 70.8084C40.4589 76.2257 50.6089 80.173 61.927 80.2535C69.8617 80.3139 77.0311 77.7966 83.7978 73.8695C85.1068 73.1042 86.4561 72.2987 87.8658 71.8556C89.3763 71.3723 90.0006 71.8556 90.3631 72.3994C90.927 73.2653 90.4839 74.373 89.9603 74.8764C88.5707 76.2862 86.9394 77.4744 85.3283 78.6626C78.0985 83.9591 69.9624 86.5167 60.1547 86.5167Z" fill="#313131"/>
<path d="M43.7817 33.0684C43.8622 32.3635 43.9629 31.5579 44.2852 31.0142C45.0504 29.7253 45.8358 29.4836 46.6414 29.4836C47.7692 29.4836 48.4539 30.3496 48.6956 31.0948C49.1386 32.4441 49.1185 34.0753 49.0983 35.5052C49.0178 42.0503 48.897 48.6156 48.6352 55.1607C48.5546 56.9732 48.6754 59.2892 46.0171 59.6316C44.3053 59.8531 43.3185 58.2218 43.2581 55.0802C43.1775 51.3343 43.2379 37.6198 43.7817 33.0684Z" fill="#313131"/>
<path d="M71.6941 41.6678C71.6941 38.8685 71.6337 36.0692 71.7143 33.2497C71.7545 31.699 71.9358 29.9872 73.9497 29.806C75.9032 29.6449 76.6684 31.1956 76.7288 32.7865C76.9705 39.7345 77.1115 46.6824 77.1316 53.6102C77.1316 55.6845 75.9636 56.2886 74.8559 56.3692C73.0837 56.49 72.3788 55.181 72.2379 53.6504C71.8955 49.6831 71.5934 41.6879 71.6941 41.6678Z" fill="#313131"/>
</svg>
