<svg width="66" height="58" viewBox="0 0 66 58" fill="none" xmlns="http://www.w3.org/2000/svg">
<path d="M35.155 57.5167C24.2196 57.0535 13.3848 53.5695 3.69803 46.7424C2.61053 45.9771 1.60359 44.9501 0.898724 43.8223C0.475808 43.1577 0.0931699 42.0903 0.697337 41.2646C1.4022 40.3181 2.34872 40.5195 3.17442 40.6202C4.08067 40.741 4.9265 41.3452 5.77234 41.8084C15.4591 47.2257 25.6091 51.173 36.9272 51.2535C44.8619 51.3139 52.0314 48.7966 58.798 44.8695C60.1071 44.1042 61.4564 43.2987 62.8661 42.8556C64.3765 42.3723 65.0008 42.8556 65.3633 43.3994C65.9272 44.2653 65.4841 45.373 64.9605 45.8764C63.5709 47.2862 61.9397 48.4744 60.3286 49.6626C53.0987 54.9591 44.9626 57.5167 35.155 57.5167Z" fill="black" fill-opacity="0.05"/>
<path d="M18.7822 4.06836C18.8627 3.3635 18.9634 2.55795 19.2856 2.0142C20.0509 0.725308 20.8363 0.483643 21.6419 0.483643C22.7697 0.483643 23.4544 1.34961 23.6961 2.09475C24.1391 3.44406 24.119 5.07531 24.0988 6.50517C24.0183 13.0503 23.8974 19.6156 23.6356 26.1607C23.5551 27.9732 23.6759 30.2892 21.0176 30.6316C19.3058 30.8531 18.319 29.2218 18.2586 26.0802C18.178 22.3343 18.2384 8.61975 18.7822 4.06836Z" fill="black" fill-opacity="0.05"/>
<path d="M46.6946 12.6678C46.6946 9.86849 46.6342 7.06918 46.7147 4.24974C46.755 2.69904 46.9363 0.987237 48.9502 0.805987C50.9036 0.644876 51.6689 2.19557 51.7293 3.78654C51.971 10.7345 52.112 17.6824 52.1321 24.6102C52.1321 26.6845 50.9641 27.2886 49.8564 27.3692C48.0842 27.49 47.3793 26.181 47.2384 24.6504C46.896 20.6831 46.5939 12.6879 46.6946 12.6678Z" fill="black" fill-opacity="0.05"/>
</svg>
