<svg width="100" height="109" viewBox="0 0 100 109" fill="none" xmlns="http://www.w3.org/2000/svg">
<path d="M21.1196 51.4194C21.8145 40.9964 26.8523 32.2238 37.7095 27.4466C48.8273 22.4957 62.2903 26.578 68.8046 37.1747C68.8915 37.3484 68.9783 37.609 69.152 37.7827C71.3235 40.041 72.1921 42.9942 72.9738 45.9473C75.4058 55.8491 71.9315 66.7932 64.2011 73.3944C52.9096 83.1225 36.146 81.5591 26.8522 69.5727C23.0305 64.6218 21.2065 58.8892 21.1196 51.4194ZM70.4549 50.9851C70.4549 48.5531 69.6732 45.0788 68.0229 41.6913C67.8492 41.3439 67.6754 41.0833 67.5886 40.7359C67.1543 38.9987 66.0251 37.7827 64.896 36.5667C56.2971 27.4466 42.5735 26.6649 33.1929 34.9164C23.8122 43.2547 22.5094 58.0206 30.4134 67.6618C35.8855 74.3499 43.0947 77.0425 51.6067 75.479C62.7245 73.3944 70.5418 63.5795 70.4549 50.9851Z" fill="black" fill-opacity="0.05"/>
<path d="M59.7185 105.706C59.6316 106.141 59.6316 106.749 59.4579 107.27C59.1973 108.052 58.5025 108.486 57.8945 108.486C57.1996 108.486 56.5916 108.052 56.331 107.444C56.0704 106.836 55.8967 106.228 55.723 105.62C54.7676 101.45 54.1596 97.1943 53.5516 92.9383C53.3778 91.3749 53.2041 89.8983 53.0304 88.3348C52.9436 87.7268 53.0304 87.032 53.2041 86.424C53.3778 85.6422 54.0727 85.208 54.7676 85.1211C55.4624 85.1211 56.0704 85.4685 56.331 86.0765C56.5916 86.5108 56.6784 87.032 56.8522 87.5531C57.8945 92.3303 58.6762 97.1075 59.2842 101.972C59.4579 103.188 59.5448 104.404 59.7185 105.706Z" fill="black" fill-opacity="0.05"/>
<path d="M28.5025 80.3433C28.4157 80.517 28.3288 80.8644 28.242 81.2119C27.9814 81.8199 27.7208 82.4279 27.3734 82.949C24.5939 87.8999 21.6408 92.6771 18.2533 97.1937C17.9059 97.628 17.5584 98.1492 17.1241 98.4966C16.603 99.0177 15.8213 99.1046 15.3001 98.7572C14.779 98.4097 14.5184 97.7149 14.779 97.02C14.9527 96.4989 15.1264 95.9777 15.387 95.5434C17.9927 90.2451 21.0327 85.2942 24.4202 80.4302C24.6808 79.9959 25.0282 79.5616 25.4625 79.2141C25.7231 78.9536 26.1574 78.693 26.5048 78.5193C27.5471 78.1719 28.5894 79.0404 28.5025 80.3433Z" fill="black" fill-opacity="0.05"/>
<path d="M94.862 79.9965C94.7752 81.0388 94.0803 81.6468 93.2986 81.56C92.8643 81.4731 92.5169 81.3862 92.0826 81.2125C87.566 79.3885 83.3099 77.1302 79.1407 74.5245C78.359 74.0902 77.6642 73.569 77.2299 72.7005C76.8824 72.0925 76.8824 71.3976 77.3167 70.8764C77.751 70.3553 78.359 70.0947 79.0539 70.2684C79.2276 70.2684 79.4013 70.3553 79.575 70.4422C79.7487 70.529 79.9225 70.529 80.0962 70.6159C84.5259 72.7005 88.9557 74.8719 92.9511 77.7382C93.3854 78.0856 93.9066 78.4331 94.3409 78.8674C94.6014 79.3017 94.7752 79.7359 94.862 79.9965Z" fill="black" fill-opacity="0.05"/>
<path d="M45.6786 9.81494C45.6786 12.0732 45.6786 14.3315 45.6786 16.5899C45.6786 17.2847 45.5049 17.9796 45.3312 18.6744C45.0706 19.4562 44.3757 19.8905 43.6809 19.8905C42.986 19.8905 42.378 19.3693 42.2043 18.5007C42.0306 17.4584 41.8568 16.4161 41.77 15.287C41.6831 11.4652 41.6831 7.55663 41.77 3.73489C41.77 2.95317 41.9437 2.17145 42.1174 1.47658C42.378 0.521147 43.0728 0 43.8546 0C44.6363 0 45.2443 0.521147 45.418 1.47658C45.5917 2.08459 45.5917 2.69259 45.5917 3.21374C45.6786 5.38519 45.6786 7.64349 45.6786 9.81494Z" fill="black" fill-opacity="0.05"/>
<path d="M4.61674 19.9775C4.7036 19.9775 4.96417 20.0644 5.13788 20.1513C5.48532 20.325 5.83275 20.4987 6.09332 20.6724C9.39392 23.4519 12.6945 26.1444 15.474 29.445C15.8214 29.8793 16.1688 30.4005 16.4294 30.9216C16.8637 31.7902 16.7768 32.4851 16.1688 33.0931C15.6477 33.6142 14.866 33.7011 13.9974 33.2668C13.5631 33.0062 13.1288 32.6588 12.6945 32.3114C9.48078 29.7056 6.61447 26.7525 3.83502 23.7993C3.40073 23.365 3.0533 22.757 2.79272 22.149C2.44529 21.1067 3.31387 19.9775 4.61674 19.9775Z" fill="black" fill-opacity="0.05"/>
<path d="M82.7321 10.8917C82.5584 11.2392 82.3847 11.8472 82.1241 12.3683C81.2556 14.0186 80.387 15.7558 79.3447 17.3192C77.955 19.4907 76.4784 21.6621 74.9149 23.8336C74.6544 24.2678 74.2201 24.7021 73.8726 25.0496C73.5252 25.397 73.0041 25.397 72.5698 25.1364C72.1355 24.8759 72.0486 24.4416 72.1355 24.0073C72.2223 23.573 72.3092 23.2256 72.4829 22.7913C74.3069 18.7958 76.1309 14.8003 78.4761 11.0655C78.9104 10.3706 79.4316 9.67573 80.0396 9.15458C80.5607 8.63343 81.1687 8.54657 81.8636 8.89401C82.4716 9.24144 82.819 9.9363 82.7321 10.8917Z" fill="black" fill-opacity="0.05"/>
<path d="M93.646 45.4267C95.0357 45.4267 96.5123 45.4267 97.902 45.4267C98.3363 45.4267 98.8575 45.5136 99.2918 45.6873C99.726 45.861 100.073 46.2953 99.9866 46.8164C99.9866 47.2507 99.726 47.5981 99.2918 47.7719C98.7706 47.9456 98.1626 48.1193 97.5546 48.2062C94.4277 48.6404 91.3008 48.9879 88.174 49.3353C87.2185 49.4222 86.2631 49.4222 85.3076 49.3353C84.6996 49.2484 84.0048 49.1616 83.3968 48.8142C82.4413 48.293 82.4413 47.077 83.3099 46.469C83.7442 46.2084 84.2653 46.0347 84.7865 45.9478C86.6974 45.6873 88.6951 45.5136 90.606 45.3398C91.7351 45.4267 92.6906 45.5136 93.646 45.4267Z" fill="black" fill-opacity="0.05"/>
<path d="M2.44523 63.3195C2.01094 63.3195 1.75037 63.3195 1.48979 63.2326C0.708071 63.0589 0.100066 62.6246 0.0132078 61.9298C-0.07365 61.2349 0.273781 60.6269 0.881786 60.2795C1.40293 60.0189 1.92408 59.7583 2.53209 59.5846C4.52982 58.8897 6.61441 58.6292 8.61214 58.3686C10.2624 58.108 11.9127 57.8474 13.563 57.5869C14.0842 57.5 14.6053 57.5 15.1265 57.5C15.6476 57.5 16.0819 57.5869 16.2556 58.1949C16.4293 58.716 15.9951 59.0634 15.6476 59.4109C15.387 59.5846 15.1265 59.7583 14.8659 59.8452C14.6053 60.0189 14.3448 60.1057 13.9973 60.1926C10.7836 61.148 7.48298 62.1035 4.26924 62.972C3.66124 63.2326 2.96638 63.2326 2.44523 63.3195Z" fill="black" fill-opacity="0.05"/>
</svg>
