<svg width="60" height="60" viewBox="0 0 60 60" fill="none" xmlns="http://www.w3.org/2000/svg">
<path d="M47.6563 19.7657C47.5606 19.5382 47.3998 19.3441 47.194 19.2078C46.9883 19.0716 46.7468 18.9993 46.5 19H41.75C41.18 18.0055 40.3887 17.1556 39.4374 16.516C38.4862 15.8764 37.4005 15.4644 36.2644 15.3118C35.1283 15.1592 33.9724 15.2702 32.886 15.6361C31.7997 16.002 30.8122 16.6131 30 17.4219C29.2889 18.1153 28.7235 18.9438 28.3371 19.8588C27.9507 20.7738 27.7511 21.7568 27.75 22.75V23.7032C21.3906 22.0469 16.1875 16.9219 16.1406 16.8594C15.9772 16.6986 15.7727 16.5859 15.5494 16.5335C15.3262 16.4812 15.0929 16.4912 14.875 16.5625C14.6578 16.6317 14.4633 16.7582 14.312 16.9287C14.1608 17.0992 14.0584 17.3074 14.0156 17.5313C12.6562 25.0625 14.9219 30.1094 17.0625 33.0157C18.1362 34.4853 19.4393 35.7725 20.9219 36.8282C18.5313 39.5313 14.8438 40.9375 14.8125 40.9532C14.6362 41.0186 14.4769 41.1229 14.3465 41.2584C14.216 41.394 14.1179 41.5572 14.0593 41.7359C14.0008 41.9146 13.9833 42.1042 14.0082 42.2906C14.0331 42.4771 14.0997 42.6555 14.2031 42.8125C14.3281 43 14.7969 43.6094 15.9375 44.1875C17.3594 44.8907 19.2344 45.25 21.5 45.25C32.5156 45.25 41.7344 36.7657 42.6719 25.8438L47.3906 21.1407C47.5602 20.9599 47.6751 20.7349 47.7222 20.4916C47.7692 20.2482 47.7463 19.9966 47.6563 19.7657ZM40.5781 24.4063C40.3604 24.6223 40.2321 24.9124 40.2188 25.2188C39.5781 35.0469 31.3594 42.75 21.5 42.75C19.8438 42.75 18.6875 42.5313 17.875 42.2657C19.6719 41.2969 22.1719 39.6094 23.7969 37.1875C23.8912 37.041 23.9538 36.8763 23.9807 36.7041C24.0077 36.5318 23.9982 36.3559 23.9531 36.1875C23.9076 36.0175 23.8272 35.8587 23.7169 35.7215C23.6066 35.5843 23.4688 35.4716 23.3125 35.3907C23.2969 35.375 20.9844 34.1719 19 31.4375C16.75 28.3438 15.7969 24.5782 16.1719 20.2344C18.6406 22.2657 23.3594 25.5782 28.7969 26.4844C28.9764 26.5133 29.1601 26.5031 29.3354 26.4545C29.5106 26.406 29.6734 26.3203 29.8125 26.2032C29.9485 26.0841 30.0578 25.9377 30.1332 25.7734C30.2086 25.6091 30.2484 25.4308 30.25 25.25V22.75C30.2523 21.6032 30.6489 20.4919 31.3731 19.6027C32.0974 18.7134 33.1053 18.1002 34.228 17.8658C35.3507 17.6313 36.5198 17.79 37.5394 18.3151C38.559 18.8402 39.3671 19.6999 39.8281 20.75C39.9278 20.9734 40.09 21.1631 40.2952 21.2962C40.5004 21.4293 40.7398 21.5001 40.9844 21.5H43.4844L40.5781 24.4063Z" fill="#959595"/>
</svg>
