<svg width="64" height="64" viewBox="0 0 64 64" fill="none" xmlns="http://www.w3.org/2000/svg">
<path d="M41.64 33C41.4957 32.8807 41.3207 32.8043 41.1351 32.7795C40.9494 32.7548 40.7606 32.7827 40.59 32.86C39.5326 33.3439 38.3829 33.5929 37.22 33.59C35.0689 33.5874 33.006 32.7344 31.4812 31.2171C29.9563 29.6998 29.0932 27.6411 29.08 25.49C29.0846 24.8158 29.1685 24.1445 29.33 23.49C29.3643 23.3155 29.3514 23.1351 29.2928 22.9673C29.2341 22.7994 29.1318 22.6503 28.9963 22.5351C28.8608 22.42 28.697 22.3431 28.5219 22.3123C28.3468 22.2815 28.1666 22.298 28 22.36C26.4323 23.0649 25.0696 24.1568 24.0398 25.533C23.01 26.9092 22.3469 28.5246 22.1129 30.2275C21.8788 31.9303 22.0815 33.6647 22.7019 35.2678C23.3222 36.8708 24.3399 38.2898 25.6593 39.3915C26.9787 40.4932 28.5565 41.2414 30.2445 41.5658C31.9324 41.8903 33.6752 41.7803 35.309 41.2462C36.9428 40.7122 38.414 39.7716 39.5844 38.5128C40.7548 37.254 41.5861 35.7183 42 34.05C42.0504 33.859 42.0431 33.6573 41.9791 33.4705C41.915 33.2836 41.797 33.1199 41.64 33ZM32.14 39.69C30.4618 39.6782 28.8282 39.1479 27.463 38.1717C26.0978 37.1956 25.0677 35.8213 24.5137 34.2371C23.9597 32.6529 23.9089 30.9362 24.3684 29.322C24.8278 27.7078 25.7749 26.2751 27.08 25.22V25.49C27.0827 28.1785 28.1518 30.7561 30.0529 32.6571C31.9539 34.5582 34.5315 35.6274 37.22 35.63C37.9259 35.6326 38.63 35.5588 39.32 35.41C38.6299 36.7155 37.5965 37.8078 36.3312 38.5691C35.0659 39.3304 33.6167 39.7318 32.14 39.73V39.69Z" fill="#E7E7E7"/>
</svg>
