<svg width="68" height="100" viewBox="0 0 68 100" fill="none" xmlns="http://www.w3.org/2000/svg">
<path d="M35.7825 28.6007C35.6153 34.6202 33.776 40.0545 29.9303 44.8199C28.509 46.5756 27.0041 48.2477 25.4992 49.8361C23.5763 51.9262 22.0715 54.2672 21.1518 56.9425C19.9814 60.4538 18.8945 64.0488 17.7241 67.5602C17.4733 68.3126 17.306 69.1487 16.888 69.8175C16.47 70.4863 15.8848 71.0716 15.2995 71.5732C14.1291 72.4092 13.0422 72.1584 12.457 70.8208C11.9554 69.7339 11.7046 68.5634 11.621 67.393C11.3702 64.3832 11.9554 61.3735 12.457 58.3638C13.293 52.6787 15.8012 47.8296 19.8142 43.733C21.319 42.1446 22.8239 40.5561 24.078 38.8004C27.0877 34.871 28.1746 30.44 27.5057 25.5074C26.3353 17.1469 18.4765 15.3077 13.3767 17.565C11.0357 18.5682 9.02924 20.0731 7.10635 21.7452C6.43751 22.3304 5.85228 22.9156 5.09985 23.4173C4.013 24.1697 2.84254 24.2533 1.67208 23.6681C0.41802 22.9992 0 21.8288 0 20.4911C0.0836041 18.9862 0.668832 17.7322 1.58848 16.5617C4.51462 12.9667 8.1932 10.5422 12.6242 9.37177C23.3255 6.69644 33.358 13.3012 35.1973 24.1697C35.5317 25.6746 35.6153 27.1794 35.7825 28.6007Z" fill="black" fill-opacity="0.05"/>
<path d="M65.4621 30.1889C64.208 40.3886 62.8704 50.5046 61.4491 60.7043C60.9475 64.2993 60.1115 67.8943 59.359 71.4893C59.1082 72.5761 58.6902 73.5794 58.1886 74.499C57.4361 75.9203 56.0985 76.5055 54.7608 76.2547C53.3395 76.0039 52.3363 74.8334 52.2527 73.1613C52.1691 71.9073 52.1691 70.6532 52.3363 69.3992C53.0887 62.1256 53.9248 54.8521 54.7608 47.5785C56.5165 33.1986 58.3558 18.8187 60.1951 4.43881C60.1951 3.76998 60.2787 3.18475 60.4459 2.51592C60.8639 1.09465 61.9507 0.0914016 63.372 0.00779753C64.8769 -0.0758065 66.0473 0.509422 66.7162 1.93069C67.0506 2.51592 67.3014 3.35196 67.3014 4.02079C67.385 5.77648 66.2981 23.2497 65.4621 30.1889Z" fill="black" fill-opacity="0.05"/>
<path d="M19.5633 91.9724C19.5633 94.6477 17.2224 97.7411 14.6307 98.3263C13.1258 98.6607 11.7881 98.4099 10.6177 97.4067C7.94234 95.233 7.0227 90.3003 8.77838 87.3742C9.1964 86.6218 9.78163 85.9529 10.4505 85.4513C17.9748 81.2711 19.5633 89.6315 19.5633 91.9724Z" fill="black" fill-opacity="0.05"/>
<path d="M60.4456 93.8113C60.4456 96.4031 58.8572 98.744 56.5999 99.58C54.3425 100.5 52.3361 99.8308 50.5804 98.3259C49.4935 97.3227 49.1591 95.985 49.4935 94.5638C49.9115 92.4737 51.082 90.8852 52.8377 89.7983C54.5098 88.7951 56.1818 88.7951 57.8539 89.7983C59.6096 90.718 60.362 92.2228 60.4456 93.8113Z" fill="black" fill-opacity="0.05"/>
</svg>
