<svg width="125" height="55" viewBox="0 0 125 55" fill="none" xmlns="http://www.w3.org/2000/svg">
<path d="M117.038 32.97C117.847 30.6391 119.084 25.0259 119.94 24.0983C120.654 23.3134 121.439 22.5047 122.937 22.7426C124.126 22.9329 124.459 24.4551 124.412 25.3589C124.293 27.4044 123.817 29.4736 123.199 31.4478C121.201 37.941 119.131 44.4342 117.015 50.9037C116.42 52.7113 115.802 54.5665 113.376 54.6855C110.831 54.8044 109.903 53.0443 109.261 51.094C106.763 43.5542 104.337 35.9907 101.959 28.4271C101.198 26.0249 102.078 24.6691 103.005 24.3361C104.861 23.694 105.907 24.8594 106.716 26.3341C107.929 28.546 109.071 30.8294 110.498 33.0176C110.735 26.5719 111.283 20.0787 108.856 13.8709C106.074 6.8306 99.1999 4.9516 93.2299 9.51827C89.5671 12.3249 87.2124 16.1066 85.8328 20.4117C84.1441 25.6205 83.0025 31.0197 81.2186 36.2047C79.9342 39.9151 78.5309 43.7683 76.2714 46.9316C71.5144 53.5676 64.0698 53.3059 59.2177 46.7414C55.769 42.0795 54.6749 36.6566 53.9375 31.0672C53.3667 26.8573 52.7007 22.6237 51.6542 18.5327C50.6315 14.5844 48.8 10.4934 44.1144 10.4221C39.7381 10.327 37.7164 14.2514 36.5033 17.8429C34.8622 22.7426 33.9346 27.9039 32.5075 32.8986C31.3183 37.061 30.3193 41.3898 28.3927 45.2191C24.3018 53.3297 16.0723 54.5665 9.26983 48.4776C4.03719 43.792 2.4674 35.9193 1.73007 30.3537C0.968962 24.6216 0.850038 22.9329 0.612191 14.846C0.540837 12.6579 0.374344 9.37556 3.65664 9.35178C6.96271 9.32799 6.6773 12.6341 6.79622 14.7985C7.31948 23.5275 7.58111 26.0962 8.5325 32.3754C9.12712 36.2761 10.5304 41.4611 13.4797 44.244C16.4052 47.003 22.0184 46.8841 23.8261 42.3174C26.0381 36.7518 27.1559 30.758 28.8922 24.9783C30.2717 20.3879 31.2469 15.512 33.554 11.3973C39.191 1.36011 50.3223 1.62175 56.1495 11.5638C56.9106 12.8719 57.6717 14.2514 57.9809 15.7023C59.0275 20.3879 59.7886 25.1686 60.8589 29.8542C61.8341 34.0641 62.619 38.3929 64.3077 42.3174C66.1867 46.67 69.6592 46.7414 71.7523 42.4601C73.8929 38.1075 75.0108 33.2316 76.6044 28.6174C78.412 23.361 79.8629 17.9381 82.1462 12.8719C84.5247 7.56792 88.7108 3.61966 94.2289 1.40768C100.389 -1.06593 107.168 0.646573 111.52 5.66515C115.017 9.68477 116.61 14.4655 117.134 19.6743C117.395 22.2907 117.324 28.879 117.038 32.97Z" fill="#313131"/>
</svg>
