<svg width="60" height="60" viewBox="0 0 60 60" fill="none" xmlns="http://www.w3.org/2000/svg">
<path d="M30 13.3333C26.7036 13.3333 23.4813 14.3107 20.7405 16.1421C17.9997 17.9734 15.8635 20.5764 14.602 23.6219C13.3405 26.6673 13.0105 30.0184 13.6536 33.2514C14.2967 36.4844 15.884 39.4542 18.2149 41.785C20.5458 44.1159 23.5155 45.7033 26.7485 46.3463C29.9815 46.9894 33.3326 46.6594 36.3781 45.3979C39.4235 44.1365 42.0265 42.0002 43.8578 39.2594C45.6892 36.5186 46.6667 33.2963 46.6667 29.9999C46.6667 27.8112 46.2356 25.644 45.398 23.6219C44.5604 21.5998 43.3328 19.7624 41.7851 18.2148C40.2375 16.6672 38.4002 15.4395 36.3781 14.6019C34.356 13.7643 32.1887 13.3333 30 13.3333ZM30 16.6666C33.4245 16.6652 36.7163 17.9915 39.1833 20.3666C36.6367 21.8603 33.9381 23.0782 31.1333 23.9999C29.7375 21.5946 28.1371 19.314 26.35 17.1833C27.5366 16.8416 28.7652 16.6677 30 16.6666ZM23.15 18.5833C24.8961 20.5808 26.4633 22.7279 27.8333 24.9999C24.5618 25.8123 21.2042 26.2264 17.8333 26.2333H17.2333C18.1787 23.0327 20.2899 20.3029 23.15 18.5833ZM20 38.8499C17.8313 36.4145 16.6435 33.2609 16.6667 29.9999C16.6667 29.8333 16.6667 29.6666 16.6667 29.5166H17.8C21.7456 29.4813 25.669 28.9208 29.4667 27.8499C30 28.8666 30.5 29.9166 30.9833 30.9999C28.3858 31.9156 25.9667 33.2746 23.8333 35.0166L23.3333 35.4166C22.1452 36.4836 21.0315 37.6308 20 38.8499ZM30 43.3333C27.3435 43.3391 24.747 42.5434 22.55 41.0499C23.3614 40.1192 24.2297 39.2398 25.15 38.4166L25.6833 37.9666C27.6553 36.3081 29.915 35.0257 32.35 34.1833C33.3522 36.8932 34.1326 39.6802 34.6833 42.5166C33.183 43.0644 31.5972 43.3409 30 43.3333ZM37.7167 40.8499C37.1714 38.3275 36.4587 35.8443 35.5833 33.4166H36.15C36.2157 33.4004 36.2843 33.4004 36.35 33.4166H36.5333H36.7H37.5C39.2539 33.4216 40.9946 33.7202 42.65 34.2999C41.7405 36.9505 40.0131 39.244 37.7167 40.8499ZM37.5 29.9999C37.15 29.9999 36.8 29.9999 36.4667 29.9999C36.2509 29.9727 36.0325 29.9727 35.8167 29.9999C35.3637 30.0277 34.9128 30.0834 34.4667 30.1666H34.3C33.8167 29.0499 33.3167 27.9666 32.7667 26.8333C35.751 25.8083 38.6173 24.4674 41.3167 22.8333C42.6557 24.9822 43.3552 27.468 43.3333 29.9999C43.3333 30.2833 43.3333 30.5666 43.3333 30.8499C41.4445 30.267 39.4767 29.9802 37.5 29.9999Z" fill="#959595"/>
</svg>
