<svg width="66" height="87" viewBox="0 0 66 87" fill="none" xmlns="http://www.w3.org/2000/svg">
<path d="M52.9485 21.0083C52.4885 25.5538 52.1572 29.3448 51.6972 33.1173C51.4395 35.1784 50.593 36.9635 48.2742 37.4604C46.3419 37.8652 44.336 36.7979 43.1767 34.4239C42.0541 32.142 41.2444 29.6944 40.3978 27.2836C37.9503 20.3642 34.1777 14.2177 29.5034 8.60482C28.0496 6.85656 26.6142 5.10829 24.9395 3.08399C24.5715 4.31698 24.277 5.31072 23.9826 6.30447C20.8541 17.1069 19.7867 28.1118 20.2652 39.3191C20.4124 42.9444 19.9892 46.6434 19.4739 50.2503C19.1426 52.5691 18.2777 54.9246 15.4805 55.4399C13.4746 55.8079 11.4871 54.1517 10.2725 51.1336C9.46278 49.1093 8.9291 46.9562 8.19299 44.8951C7.78812 43.7357 7.19923 42.65 6.66555 41.4354C-0.0882657 49.643 5.06451 76.7135 14.0635 80.6701C14.1003 73.4194 17.4312 67.4201 21.3694 61.752C26.9454 53.7284 29.9819 44.8583 30.994 35.2152C31.0676 34.4975 31.2149 33.7614 31.3437 33.0621C31.9694 29.7864 33.3128 29.2527 35.7603 31.6819C37.343 33.2461 38.7416 35.1784 39.6617 37.1843C44.2256 47.0114 46.1211 57.2066 43.0294 67.917C42.6798 69.0948 41.8885 70.751 42.4774 71.5975C43.5079 72.8857 45.1274 70.6774 45.477 69.7757C46.3972 67.4017 46.9676 64.9173 47.7038 62.4698C48.1638 60.9423 48.4399 59.2677 49.268 57.9427C49.9121 56.9121 51.3107 55.6423 52.2676 55.7343C53.2614 55.8264 54.6416 57.2434 54.9729 58.3475C57.402 66.5736 56.261 74.1003 48.6791 80.4861C44.7777 83.7802 39.9746 84.8475 35.061 85.4916C29.5218 86.2093 24.0562 86.4302 18.4985 85.1604C15.8485 84.5531 13.0881 84.1482 11.4871 83.5593C9.88604 82.9704 8.52423 81.7743 7.88014 80.7805C-0.309099 68.1378 -1.6525 54.8142 4.10757 40.8465C5.30375 37.9573 7.6041 37.35 9.6284 39.7423C11.119 41.509 11.9656 43.8829 12.9041 46.0913C13.5482 47.6371 13.8978 49.3118 14.3395 50.9312C14.8916 52.9555 15.7013 53.2684 16.2534 52.9187C16.9343 52.7163 17.3392 50.2687 17.2656 47.8211C17.1367 43.7909 17.2103 39.7423 16.7871 35.7489C15.5541 24.0448 18.4065 13.0767 22.5656 2.32947C23.5961 -0.357331 24.7739 -0.688581 26.9822 1.1885C36.0364 8.86246 42.5694 18.2111 45.5322 29.8416C45.9923 31.6083 46.1395 33.5958 48.3847 34.9944C48.6055 33.2829 48.7895 31.8659 48.9919 30.4673C49.5072 27.0076 49.8385 23.5111 50.6114 20.125C51.0899 18.0823 52.5069 17.659 53.9975 19.1312C55.9482 21.0635 57.8621 23.1982 59.1319 25.609C63.8614 34.6264 65.4808 44.4166 65.444 54.5013C65.4072 62.4329 63.935 70.1253 60.2913 77.2104C59.0583 79.6211 56.9787 81.6086 55.2121 83.725C54.4208 84.6819 52.6173 84.3691 53.4454 82.2343C53.519 82.0503 53.611 81.8295 53.7399 81.6454C60.5857 72.4625 61.2666 61.7152 61.3586 50.8944C61.4322 42.2635 60.1808 33.7982 56.1506 25.9954C55.3041 24.3944 54.2183 22.959 52.9485 21.0083ZM51.9548 58.7524C50.869 62.3593 50.0225 65.3406 49.0472 68.3034C48.2742 70.6406 47.0965 72.7569 44.7777 73.9163C42.0909 75.2781 39.4777 73.7691 39.3305 70.751C39.2753 69.518 39.3305 68.2482 39.5697 67.052C41.4468 57.4458 40.5635 48.134 36.8093 39.0982C36.1652 37.5524 35.2267 36.1354 34.2881 34.4423C33.9569 34.9944 33.7176 37.0003 33.6808 37.8652C33.4416 44.4166 32.7055 50.8944 29.2642 56.6729C27.2031 60.1142 24.8843 63.4083 22.6392 66.7576C20.1548 70.4934 17.9465 74.3579 17.1367 78.8482C16.5847 81.9215 16.8239 82.0687 19.7683 82.8232C26.0069 84.4059 32.1166 83.3937 38.2079 82.1791C45.1458 80.7989 49.4704 76.235 52.0468 69.9413C53.4638 66.5 53.059 62.9298 51.9548 58.7524Z" fill="#494949" fill-opacity="0.05"/>
</svg>
