<svg width="56" height="56" viewBox="0 0 56 56" fill="none" xmlns="http://www.w3.org/2000/svg">
<path d="M17.4745 20.7952C19.2871 20.7952 20.7565 19.3258 20.7565 17.5132C20.7565 15.7006 19.2871 14.2312 17.4745 14.2312C15.6619 14.2312 14.1925 15.7006 14.1925 17.5132C14.1925 19.3258 15.6619 20.7952 17.4745 20.7952Z" fill="#959595"/>
<path d="M23.8555 23.2825V41.491H29.509V32.4865C29.509 30.1105 29.956 27.8095 32.902 27.8095C35.8075 27.8095 35.8435 30.526 35.8435 32.6365V41.4925H41.5V31.507C41.5 26.602 40.444 22.8325 34.711 22.8325C31.9585 22.8325 30.1135 24.343 29.359 25.7725H29.2825V23.2825H23.8555ZM14.6425 23.2825H20.305V41.491H14.6425V23.2825Z" fill="#959595"/>
</svg>
