<svg width="45" height="46" viewBox="0 0 45 46" fill="none" xmlns="http://www.w3.org/2000/svg">
<path d="M20.5557 25.9102C21.1309 26.2947 21.8076 26.5 22.5 26.5C23.4282 26.5 24.3184 26.1313 24.9751 25.4749C25.6313 24.8186 26 23.9282 26 23C26 22.3079 25.7949 21.6311 25.4102 21.0554C25.0254 20.48 24.479 20.0312 23.8394 19.7664C23.1997 19.5015 22.4961 19.4321 21.8174 19.5671C21.4727 19.6357 21.1421 19.7556 20.8359 19.9209C20.5396 20.0811 20.2661 20.2842 20.0249 20.5251C19.5356 21.0146 19.2021 21.6382 19.0674 22.3171C18.9771 22.7695 18.978 23.2332 19.0674 23.6812C19.1118 23.9055 19.1782 24.126 19.2666 24.3394C19.5312 24.979 19.98 25.5256 20.5557 25.9102Z" fill="#959595"/>
<path fill-rule="evenodd" clip-rule="evenodd" d="M12 0.5C5.37256 0.5 0 5.87256 0 12.5V33.5C0 40.1274 5.37256 45.5 12 45.5H33C39.6274 45.5 45 40.1274 45 33.5V12.5C45 5.87256 39.6274 0.5 33 0.5H12ZM15.4302 28.71L16.1401 28C16.3315 27.8362 16.5771 27.7505 16.8291 27.7603C17.0806 27.77 17.3193 27.8743 17.4976 28.0525C17.6758 28.2305 17.7798 28.4692 17.7896 28.7209C17.7993 28.9727 17.7139 29.2188 17.5498 29.4099L16.8398 30.1201C16.6528 30.3062 16.3994 30.4109 16.1348 30.4109C15.8706 30.4109 15.6172 30.3062 15.4302 30.1201C15.2437 29.9326 15.1392 29.6792 15.1392 29.415C15.1392 29.1509 15.2437 28.8975 15.4302 28.71ZM15.207 22.293C15.3945 22.4805 15.5 22.7349 15.5 23C15.5 23.2651 15.3945 23.5195 15.207 23.707C15.0195 23.8945 14.7651 24 14.5 24H13.5C13.2349 24 12.9805 23.8945 12.793 23.707C12.6055 23.5195 12.5 23.2651 12.5 23C12.5 22.7349 12.6055 22.4805 12.793 22.293C12.8921 22.1941 13.0098 22.1179 13.1377 22.0681C13.252 22.0234 13.375 22 13.5 22H14.5C14.6377 22 14.7725 22.0283 14.896 22.0818C15.0107 22.1313 15.1167 22.2026 15.207 22.293ZM23.207 15.707C23.0195 15.8945 22.7651 16 22.5 16C22.2349 16 21.9805 15.8945 21.793 15.707C21.6846 15.5984 21.6035 15.4675 21.5542 15.3252C21.5186 15.2214 21.5 15.1116 21.5 15V14C21.5 13.7349 21.6055 13.4805 21.793 13.293C21.9805 13.1055 22.2349 13 22.5 13C22.7651 13 23.0195 13.1055 23.207 13.293C23.3047 13.3906 23.3804 13.5066 23.4302 13.6328C23.4761 13.7485 23.5 13.873 23.5 14V15C23.5 15.2651 23.3945 15.5195 23.207 15.707ZM16.8398 18.3401C16.5776 18.3389 16.3262 18.2349 16.1401 18.05L15.4302 17.3401C15.3252 17.2178 15.2524 17.0728 15.2163 16.9185C15.1958 16.8315 15.187 16.7417 15.1904 16.6509C15.2002 16.3992 15.3042 16.1606 15.4824 15.9824C15.6606 15.8044 15.8994 15.7 16.1509 15.6902C16.4028 15.6807 16.6489 15.7661 16.8398 15.9299L17.5498 16.6399C17.668 16.7585 17.7529 16.9036 17.7998 17.061C17.8267 17.1523 17.8408 17.2478 17.8408 17.345C17.8408 17.6091 17.7363 17.8625 17.5498 18.05C17.4565 18.1426 17.3457 18.2161 17.2241 18.2659C17.1021 18.3154 16.9717 18.3408 16.8398 18.3401ZM28.8398 18.05C28.6577 18.2312 28.4126 18.3345 28.1562 18.3398C27.9092 18.3276 27.6753 18.2244 27.5 18.05C27.314 17.8625 27.209 17.6091 27.209 17.345C27.209 17.0808 27.314 16.8274 27.5 16.6399L28.1401 15.9299C28.2056 15.8538 28.2817 15.7876 28.3667 15.7341C28.3979 15.7144 28.4302 15.6963 28.4639 15.6802C28.4941 15.6655 28.5254 15.6523 28.5571 15.6409C28.6543 15.6055 28.7568 15.5852 28.8608 15.5813C28.9985 15.5759 29.1362 15.5991 29.2642 15.6494C29.3926 15.6997 29.5093 15.7759 29.6064 15.8733C29.7041 15.9707 29.7803 16.0874 29.8306 16.2156C29.8809 16.344 29.9043 16.4814 29.8989 16.6191C29.8936 16.7568 29.8599 16.8918 29.7998 17.0159C29.7397 17.1401 29.6548 17.2502 29.5498 17.3401L28.8398 18.05ZM28.1562 18.3398C28.1509 18.3398 28.1455 18.3401 28.1401 18.3401H28.1602L28.1562 18.3398ZM30.5 22H31.5C31.7651 22 32.0195 22.1055 32.207 22.293C32.3945 22.4805 32.5 22.7349 32.5 23C32.5 23.2651 32.3945 23.5195 32.207 23.707C32.0195 23.8945 31.7651 24 31.5 24H30.5C30.2349 24 29.9805 23.8945 29.793 23.707C29.6055 23.5195 29.5 23.2651 29.5 23C29.5 22.8413 29.5376 22.6865 29.6084 22.5476C29.6558 22.4543 29.7178 22.3682 29.793 22.293C29.9805 22.1055 30.2349 22 30.5 22ZM21.793 30.293C21.9805 30.1055 22.2349 30 22.5 30C22.7651 30 23.0195 30.1055 23.207 30.293C23.3945 30.4805 23.5 30.7349 23.5 31V32C23.5 32.2651 23.3945 32.5195 23.207 32.707C23.1152 32.7986 23.0078 32.8706 22.8911 32.9204C22.7686 32.9724 22.6357 33 22.5 33C22.2349 33 21.9805 32.8945 21.793 32.707C21.6055 32.5195 21.5 32.2651 21.5 32V31C21.5 30.8625 21.5283 30.7278 21.5815 30.604C21.6313 30.489 21.7026 30.3833 21.793 30.293ZM28.5449 27.8887C28.6548 27.9077 28.7612 27.9451 28.8599 28L29.6201 28.6599C29.8062 28.8474 29.9106 29.1008 29.9106 29.365C29.9106 29.6292 29.8062 29.8826 29.6201 30.0701C29.4326 30.2563 29.1792 30.3608 28.915 30.3608C28.6509 30.3608 28.3975 30.2563 28.21 30.0701L27.5 29.3601C27.3945 29.1699 27.3535 28.9507 27.3833 28.7354C27.4019 28.6028 27.4468 28.4761 27.5146 28.3625C27.5566 28.2917 27.6079 28.2258 27.667 28.1667C27.8203 28.0132 28.02 27.9136 28.2354 27.8835C28.3389 27.8691 28.4434 27.8711 28.5449 27.8887ZM19.4443 18.427C20.3486 17.8225 21.4121 17.5 22.5 17.5C23.958 17.5027 25.3555 18.083 26.3862 19.1138C27.417 20.1448 27.9976 21.5422 28 23C28 24.0879 27.6772 25.1511 27.0732 26.0557C26.4688 26.9602 25.6099 27.665 24.605 28.0813C23.5996 28.4976 22.4941 28.6064 21.4272 28.3943C20.3604 28.1821 19.3799 27.6582 18.6108 26.8892C17.8418 26.1199 17.3179 25.1399 17.1055 24.073C16.8936 23.0061 17.0024 21.9001 17.4185 20.8953C17.835 19.8901 18.54 19.0312 19.4443 18.427Z" fill="#959595"/>
</svg>
