<svg width="40" height="44" viewBox="0 0 40 44" fill="none" xmlns="http://www.w3.org/2000/svg">
<path d="M20 27C20 27.5523 19.5523 28 19 28H12C11.4477 28 11 27.5523 11 27C11 26.4477 11.4477 26 12 26H19C19.5523 26 20 26.4477 20 27ZM29 22C29 22.5523 28.5523 23 28 23H12C11.4477 23 11 22.5523 11 22C11 21.4477 11.4477 21 12 21H28C28.5523 21 29 21.4477 29 22ZM29 17C29 17.5523 28.5523 18 28 18H21C20.4477 18 20 17.5523 20 17C20 16.4477 20.4477 16 21 16H28C28.5523 16 29 16.4477 29 17Z" fill="#959595"/>
</svg>
