<svg width="68" height="60" viewBox="0 0 68 60" fill="none" xmlns="http://www.w3.org/2000/svg">
<path d="M1.428 37V22.3H6.447C8.169 22.3 9.583 22.608 10.689 23.224C11.809 23.826 12.635 24.68 13.167 25.786C13.713 26.878 13.986 28.166 13.986 29.65C13.986 31.134 13.713 32.429 13.167 33.535C12.635 34.627 11.809 35.481 10.689 36.097C9.583 36.699 8.169 37 6.447 37H1.428ZM4.116 34.69H6.321C7.553 34.69 8.526 34.494 9.24 34.102C9.954 33.696 10.465 33.122 10.773 32.38C11.081 31.624 11.235 30.714 11.235 29.65C11.235 28.6 11.081 27.697 10.773 26.941C10.465 26.185 9.954 25.604 9.24 25.198C8.526 24.792 7.553 24.589 6.321 24.589H4.116V34.69ZM21.2927 37.252C20.2847 37.252 19.3747 37.021 18.5627 36.559C17.7647 36.097 17.1277 35.46 16.6517 34.648C16.1897 33.822 15.9587 32.87 15.9587 31.792C15.9587 30.714 16.1967 29.769 16.6727 28.957C17.1487 28.131 17.7857 27.487 18.5837 27.025C19.3957 26.563 20.3057 26.332 21.3137 26.332C22.3077 26.332 23.2037 26.563 24.0017 27.025C24.8137 27.487 25.4507 28.131 25.9127 28.957C26.3887 29.769 26.6267 30.714 26.6267 31.792C26.6267 32.87 26.3887 33.822 25.9127 34.648C25.4507 35.46 24.8137 36.097 24.0017 36.559C23.1897 37.021 22.2867 37.252 21.2927 37.252ZM21.2927 34.921C21.9927 34.921 22.6017 34.662 23.1197 34.144C23.6377 33.612 23.8967 32.828 23.8967 31.792C23.8967 30.756 23.6377 29.979 23.1197 29.461C22.6017 28.929 21.9997 28.663 21.3137 28.663C20.5997 28.663 19.9837 28.929 19.4657 29.461C18.9617 29.979 18.7097 30.756 18.7097 31.792C18.7097 32.828 18.9617 33.612 19.4657 34.144C19.9837 34.662 20.5927 34.921 21.2927 34.921ZM28.358 37V34.837L33.671 28.81H28.421V26.584H36.737V28.747L31.34 34.774H36.842V37H28.358ZM40.5279 24.967C40.0379 24.967 39.6319 24.82 39.3099 24.526C39.0019 24.232 38.8479 23.861 38.8479 23.413C38.8479 22.965 39.0019 22.601 39.3099 22.321C39.6319 22.027 40.0379 21.88 40.5279 21.88C41.0179 21.88 41.4169 22.027 41.7249 22.321C42.0469 22.601 42.2079 22.965 42.2079 23.413C42.2079 23.861 42.0469 24.232 41.7249 24.526C41.4169 24.82 41.0179 24.967 40.5279 24.967ZM39.1839 37V26.584H41.8719V37H39.1839ZM46.1265 24.967C45.6365 24.967 45.2305 24.82 44.9085 24.526C44.6005 24.232 44.4465 23.861 44.4465 23.413C44.4465 22.965 44.6005 22.601 44.9085 22.321C45.2305 22.027 45.6365 21.88 46.1265 21.88C46.6165 21.88 47.0155 22.027 47.3235 22.321C47.6455 22.601 47.8065 22.965 47.8065 23.413C47.8065 23.861 47.6455 24.232 47.3235 24.526C47.0155 24.82 46.6165 24.967 46.1265 24.967ZM44.7825 37V26.584H47.4705V37H44.7825ZM51.7251 24.967C51.2351 24.967 50.8291 24.82 50.5071 24.526C50.1991 24.232 50.0451 23.861 50.0451 23.413C50.0451 22.965 50.1991 22.601 50.5071 22.321C50.8291 22.027 51.2351 21.88 51.7251 21.88C52.2151 21.88 52.6141 22.027 52.9221 22.321C53.2441 22.601 53.4051 22.965 53.4051 23.413C53.4051 23.861 53.2441 24.232 52.9221 24.526C52.6141 24.82 52.2151 24.967 51.7251 24.967ZM50.3811 37V26.584H53.0691V37H50.3811ZM60.9358 37.252C59.8858 37.252 58.9548 37.028 58.1428 36.58C57.3308 36.132 56.6938 35.502 56.2318 34.69C55.7698 33.878 55.5388 32.94 55.5388 31.876C55.5388 30.798 55.7628 29.839 56.2108 28.999C56.6728 28.159 57.3028 27.508 58.1008 27.046C58.9128 26.57 59.8648 26.332 60.9568 26.332C61.9788 26.332 62.8818 26.556 63.6658 27.004C64.4498 27.452 65.0588 28.068 65.4928 28.852C65.9408 29.622 66.1648 30.483 66.1648 31.435C66.1648 31.589 66.1578 31.75 66.1438 31.918C66.1438 32.086 66.1368 32.261 66.1228 32.443H58.2058C58.2618 33.255 58.5418 33.892 59.0458 34.354C59.5638 34.816 60.1868 35.047 60.9148 35.047C61.4608 35.047 61.9158 34.928 62.2798 34.69C62.6578 34.438 62.9378 34.116 63.1198 33.724H65.8498C65.6538 34.382 65.3248 34.984 64.8628 35.53C64.4148 36.062 63.8548 36.482 63.1828 36.79C62.5248 37.098 61.7758 37.252 60.9358 37.252ZM60.9568 28.516C60.2988 28.516 59.7178 28.705 59.2138 29.083C58.7098 29.447 58.3878 30.007 58.2478 30.763H63.4348C63.3928 30.077 63.1408 29.531 62.6788 29.125C62.2168 28.719 61.6428 28.516 60.9568 28.516Z" fill="#F9F9F9"/>
<line x1="1.44092" y1="20.0323" x2="32.9946" y2="20.0323" stroke="#F9F9F9" stroke-width="3"/>
<line x1="39.6943" y1="40.2542" x2="66.1406" y2="40.2542" stroke="#F9F9F9" stroke-width="3"/>
</svg>
