<svg width="16" height="17" viewBox="0 0 16 17" fill="none" xmlns="http://www.w3.org/2000/svg">
<path fill-rule="evenodd" clip-rule="evenodd" d="M6.364 14C6.364 14.1326 6.41668 14.2598 6.51045 14.3536C6.60421 14.4473 6.73139 14.5 6.864 14.5H13.5C13.8978 14.5 14.2794 14.342 14.5607 14.0607C14.842 13.7794 15 13.3978 15 13V3C15 2.60218 14.842 2.22064 14.5607 1.93934C14.2794 1.65804 13.8978 1.5 13.5 1.5H3.5C3.10218 1.5 2.72064 1.65804 2.43934 1.93934C2.15804 2.22064 2 2.60218 2 3V9.636C2 9.76861 2.05268 9.89579 2.14645 9.98955C2.24021 10.0833 2.36739 10.136 2.5 10.136C2.63261 10.136 2.75979 10.0833 2.85355 9.98955C2.94732 9.89579 3 9.76861 3 9.636V3C3 2.86739 3.05268 2.74021 3.14645 2.64645C3.24021 2.55268 3.36739 2.5 3.5 2.5H13.5C13.6326 2.5 13.7598 2.55268 13.8536 2.64645C13.9473 2.74021 14 2.86739 14 3V13C14 13.1326 13.9473 13.2598 13.8536 13.3536C13.7598 13.4473 13.6326 13.5 13.5 13.5H6.864C6.73139 13.5 6.60421 13.5527 6.51045 13.6464C6.41668 13.7402 6.364 13.8674 6.364 14Z" fill="#494949"/>
<path fill-rule="evenodd" clip-rule="evenodd" d="M11 6C11 5.86739 10.9473 5.74021 10.8536 5.64645C10.7598 5.55268 10.6326 5.5 10.5 5.5H5.50002C5.36741 5.5 5.24024 5.55268 5.14647 5.64645C5.0527 5.74021 5.00002 5.86739 5.00002 6C5.00002 6.13261 5.0527 6.25979 5.14647 6.35355C5.24024 6.44732 5.36741 6.5 5.50002 6.5H9.29302L1.14602 14.646C1.05213 14.7399 0.99939 14.8672 0.99939 15C0.99939 15.1328 1.05213 15.2601 1.14602 15.354C1.23991 15.4479 1.36725 15.5006 1.50002 15.5006C1.6328 15.5006 1.76013 15.4479 1.85402 15.354L10 7.207V11C10 11.1326 10.0527 11.2598 10.1465 11.3536C10.2402 11.4473 10.3674 11.5 10.5 11.5C10.6326 11.5 10.7598 11.4473 10.8536 11.3536C10.9473 11.2598 11 11.1326 11 11V6Z" fill="#494949"/>
</svg>
