<svg width="58" height="32" viewBox="0 0 58 32" fill="none" xmlns="http://www.w3.org/2000/svg">
<g clip-path="url(#clip0_762_2868)">
<path d="M23.8725 14.3387C22.3802 12.8464 21.5418 10.8223 21.5418 8.71187C21.5418 6.6014 22.3802 4.57736 23.8725 3.08503C25.3648 1.5927 27.3889 0.754315 29.4994 0.754315C31.6098 0.754315 33.6339 1.5927 35.1262 3.08503L37.4415 5.40038L39.7537 3.08503C41.2461 1.59186 43.2704 0.75267 45.3815 0.752076C47.4926 0.751482 49.5174 1.58953 51.0106 3.08186C52.5038 4.57419 53.3429 6.59856 53.3435 8.70963C53.3441 10.8207 52.5061 12.8455 51.0138 14.3387L49.2305 16.1251L37.4447 27.9109L23.8725 14.3387Z" fill="#F24E1E"/>
<path d="M53.3418 8.71341C53.3441 9.75828 53.1395 10.7933 52.74 11.7587C52.3404 12.7242 51.7537 13.601 51.0138 14.3387L49.2274 16.1282L37.4479 27.914L23.8725 14.3387C22.3802 12.8463 21.5418 10.8223 21.5418 8.71183C21.5418 6.60135 22.3802 4.57732 23.8725 3.08499C25.3648 1.59265 27.3889 0.754271 29.4994 0.754271C31.6098 0.754271 33.6339 1.59265 35.1262 3.08499L37.4384 5.39717L39.7569 3.08499C40.496 2.34583 41.3735 1.7595 42.3392 1.35946C43.305 0.959434 44.34 0.75354 45.3853 0.75354C46.4306 0.75354 47.4657 0.959434 48.4314 1.35946C49.3972 1.7595 50.2746 2.34583 51.0138 3.08499C51.1404 3.21168 51.264 3.34471 51.378 3.48091C52.6491 4.92705 53.3475 6.78806 53.3418 8.71341V8.71341Z" fill="#F24E1E"/>
<path d="M54.4789 5.47C53.9857 4.985 53.4371 4.55975 52.8445 4.20305C52.4897 3.60812 52.0643 3.05828 51.5775 2.56552C50.7687 1.75626 49.8083 1.1143 48.7512 0.676309C47.6942 0.23832 46.5612 0.0128864 45.417 0.0128864C44.2728 0.0128864 43.1398 0.23832 42.0828 0.676309C41.0257 1.1143 40.0653 1.75626 39.2565 2.56552L37.4384 4.33925L35.6583 2.55285C34.8497 1.74369 33.8896 1.10179 32.8328 0.663847C31.776 0.225902 30.6433 0.000488281 29.4994 0.000488281C28.3554 0.000488281 27.2227 0.225902 26.1659 0.663847C25.1091 1.10179 24.149 1.74369 23.3404 2.55285C23.0795 2.81008 22.8381 3.08641 22.6182 3.37953C21.3291 2.65103 19.8658 1.99539 18.0255 1.99539C15.8369 1.99539 14.4844 2.88859 13.1604 3.76278C11.9537 4.55779 10.8039 5.30213 9.01435 5.30213C7.22478 5.30213 6.06869 4.55779 4.85875 3.76278C3.53796 2.88859 2.17282 1.99539 0 1.99539L0 3.48405C1.72305 3.48405 2.79363 4.19038 4.03207 4.99806C5.27051 5.80574 6.76868 6.79396 9.01435 6.79396C11.26 6.79396 12.7075 5.84375 13.9903 4.99806C15.2731 4.15237 16.3025 3.48405 18.0255 3.48405C19.4762 3.48405 20.6735 4.0035 21.7979 4.63064C21.3122 5.54624 20.9956 6.54197 20.8635 7.56997C19.9561 7.21057 18.9889 7.02574 18.0129 7.02518C15.8369 7.02518 14.4717 7.92155 13.1478 8.78941C11.941 9.58125 10.7912 10.3351 9.00168 10.3351C7.21211 10.3351 6.05602 9.58125 4.84609 8.78941C3.53796 7.93422 2.17282 7.03785 0 7.03785L0 8.55186C1.72305 8.55186 2.79363 9.25501 4.03207 10.0659C5.27051 10.8767 6.76868 11.8618 9.01435 11.8618C11.26 11.8618 12.7075 10.9116 13.9903 10.0659C15.2731 9.22017 16.3025 8.55186 18.0255 8.55186C18.9872 8.56153 19.9355 8.77756 20.8065 9.18533C20.8772 10.5767 21.2825 11.9305 21.9879 13.1319C20.7734 12.4619 19.4124 12.1018 18.0255 12.0835C15.8369 12.0803 14.4844 12.9862 13.1604 13.8477C11.9537 14.6396 10.8039 15.3934 9.01435 15.3934C7.22478 15.3934 6.06869 14.6396 4.85875 13.8477C3.53796 12.9862 2.17282 12.0803 0 12.0803L0 13.588C1.72305 13.588 2.79363 14.2911 4.03207 15.102C5.27051 15.9128 6.76868 16.8947 9.01435 16.8947C11.26 16.8947 12.7075 15.9445 13.9903 15.102C15.2731 14.2595 16.3025 13.588 18.0255 13.588C19.926 13.588 21.3703 14.459 22.7766 15.3047C23.4532 15.7348 24.1616 16.1128 24.8956 16.4355L24.9304 16.4703L28.5666 20.1001C28.0823 20.3105 27.5614 20.4235 27.0336 20.4327C25.8585 20.4327 24.7942 19.7992 23.5494 19.0612C22.0386 18.1553 20.3251 17.1228 18.0224 17.1228C15.8464 17.1228 14.4812 18.0223 13.1573 18.8902C11.9505 19.6852 10.8008 20.4327 9.01118 20.4327C7.22162 20.4327 6.06552 19.6852 4.85559 18.8902C3.53796 18.0223 2.17282 17.1228 0 17.1228L0 18.6241C1.72305 18.6241 2.79363 19.3336 4.03207 20.1413C5.27051 20.949 6.76868 21.9372 9.01435 21.9372C11.26 21.9372 12.7075 20.987 13.9903 20.1413C15.2731 19.2956 16.3025 18.6241 18.0255 18.6241C19.926 18.6241 21.3703 19.5046 22.7766 20.3472C24.0847 21.1263 25.4309 21.9308 27.0241 21.9308C27.9604 21.907 28.8782 21.664 29.7037 21.2214L31.4869 23.0046L31.8036 23.3213C31.3475 23.5652 30.9136 23.8249 30.4987 24.072C29.2634 24.8132 28.1991 25.4498 27.0145 25.4498C25.83 25.4498 24.7752 24.8163 23.5304 24.072C22.0418 23.1946 20.3282 22.1716 18.0255 22.1716C15.8369 22.1716 14.4844 23.0679 13.1604 23.9326C11.9537 24.7276 10.8039 25.4783 9.01435 25.4783C7.22478 25.4783 6.06869 24.7276 4.85875 23.9326C3.53796 23.0679 2.17282 22.1716 0 22.1716L0 23.6729C1.72305 23.6729 2.79363 24.3761 4.03207 25.1901C5.27051 26.0041 6.76868 26.986 9.01435 26.986C11.26 26.986 12.7075 26.0358 13.9903 25.1901C15.2731 24.3444 16.3025 23.6729 18.0255 23.6729C19.926 23.6729 21.3703 24.5503 22.7766 25.396C24.0847 26.1751 25.4309 26.9796 27.0241 26.9796C28.6172 26.9796 29.9697 26.1688 31.281 25.396C31.8131 25.0792 32.3547 24.7625 32.9249 24.4679L32.9534 24.4933L35.652 27.1982C33.6977 27.2932 32.4118 28.1484 31.1701 28.9529C29.9285 29.7574 28.8231 30.4954 27.0336 30.4954C25.8585 30.4954 24.7942 29.862 23.5494 29.1176C22.0386 28.2118 20.3251 27.1855 18.0224 27.1855C15.8464 27.1855 14.4812 28.0851 13.1573 28.9498C11.9505 29.7448 10.8008 30.4954 9.01118 30.4954C7.22162 30.4954 6.06552 29.7448 4.85559 28.9498C3.53796 28.0851 2.17282 27.1855 0 27.1855L0 28.6869C1.72305 28.6869 2.79363 29.3932 4.03207 30.204C5.27051 31.0149 6.76868 31.9904 9.01435 31.9904C11.26 31.9904 12.7075 31.0402 13.9903 30.1945C15.2731 29.3488 16.3025 28.6774 18.0255 28.6774C19.926 28.6774 21.3703 29.5547 22.7766 30.4004C24.0847 31.1796 25.4309 31.9841 27.0241 31.9841C29.2666 31.9841 30.7172 31.0339 31.9968 30.1882C33.2765 29.3425 34.3122 28.671 36.0321 28.671C36.4517 28.6716 36.8701 28.7173 37.28 28.8072L37.432 28.9593L40.3524 31.8764L52.683 19.5743L54.4789 17.7879C56.1115 16.154 57.0286 13.9387 57.0286 11.629C57.0286 9.31918 56.1115 7.10389 54.4789 5.47V5.47ZM22.4219 10.0469C22.1239 8.46815 22.3613 6.83514 23.0965 5.40665C23.3274 4.95679 23.6044 4.53218 23.9232 4.1397C24.0735 3.95142 24.2353 3.77265 24.4078 3.60441C25.7598 2.25591 27.5914 1.49862 29.5009 1.49862C31.4105 1.49862 33.2421 2.25591 34.5941 3.60441L36.3773 5.38448L37.4384 6.44555L38.5026 5.38448L40.2859 3.60125C41.6432 2.27692 43.4677 1.54076 45.364 1.55229C47.2604 1.56381 49.0758 2.32209 50.4169 3.66281C51.7581 5.00354 52.5169 6.81872 52.529 8.71505C52.5411 10.6114 51.8055 12.4361 50.4816 13.7939L48.7016 15.5803L37.4447 26.8498L33.2765 22.6815L31.0593 20.4644L30.4892 19.8911L27.005 16.4069L26.1625 15.5581L25.7191 15.1178L24.3825 13.7749C23.37 12.7568 22.6869 11.458 22.4219 10.0469V10.0469Z" fill="black"/>
<path d="M33.4507 11.1587C34.2658 11.1587 34.9266 10.4978 34.9266 9.68266C34.9266 8.86749 34.2658 8.20667 33.4507 8.20667C32.6355 8.20667 31.9747 8.86749 31.9747 9.68266C31.9747 10.4978 32.6355 11.1587 33.4507 11.1587Z" fill="black"/>
<path d="M41.4388 11.1587C42.254 11.1587 42.9148 10.4978 42.9148 9.68266C42.9148 8.86749 42.254 8.20667 41.4388 8.20667C40.6236 8.20667 39.9628 8.86749 39.9628 9.68266C39.9628 10.4978 40.6236 11.1587 41.4388 11.1587Z" fill="black"/>
<path d="M37.4447 19.5585C35.6283 19.5673 33.8656 18.9433 32.4593 17.7936C31.053 16.644 30.091 15.0405 29.7385 13.2586C29.7176 13.1547 29.7187 13.0475 29.7418 12.944C29.7648 12.8406 29.8092 12.743 29.8721 12.6577C29.935 12.5724 30.0151 12.5012 30.1072 12.4487C30.1993 12.3962 30.3013 12.3635 30.4068 12.3528V12.3528C30.5979 12.3372 30.7879 12.3935 30.9396 12.5107C31.0913 12.6279 31.1939 12.7974 31.2272 12.9862C31.5225 14.4132 32.3007 15.6947 33.4307 16.6148C34.5607 17.5348 35.9733 18.0372 37.4305 18.0372C38.8877 18.0372 40.3003 17.5348 41.4303 16.6148C42.5602 15.6947 43.3385 14.4132 43.6338 12.9862C43.6671 12.7974 43.7696 12.6279 43.9213 12.5107C44.0731 12.3935 44.2631 12.3372 44.4541 12.3528V12.3528C44.5596 12.3625 44.662 12.3941 44.7547 12.4454C44.8474 12.4967 44.9284 12.5667 44.9927 12.6509C45.057 12.7352 45.1032 12.8318 45.1282 12.9348C45.1533 13.0377 45.1567 13.1448 45.1383 13.2491C44.787 15.03 43.8274 16.6334 42.4238 17.7845C41.0201 18.9355 39.26 19.5627 37.4447 19.5585V19.5585Z" fill="black"/>
</g>
<defs>
<clipPath id="clip0_762_2868">
<rect width="57.0128" height="32" fill="white"/>
</clipPath>
</defs>
</svg>
